<svg xmlns="http://www.w3.org/2000/svg" version="1.1" xmlns:xlink="http://www.w3.org/1999/xlink" xmlns:svgjs="http://svgjs.dev/svgjs" width="1440" height="560" preserveAspectRatio="none" viewBox="0 0 1440 560">
    <g mask="url(&quot;#SvgjsMask1018&quot;)" fill="none">
        <rect width="1440" height="560" x="0" y="0" fill="rgba(24, 28, 36, 1)"></rect>
        <path d="M0,590.111C108.661,589.371,167.004,460.748,260.285,405.012C358.031,346.609,497.692,351.092,559.779,255.643C622.703,158.907,600.006,30.167,577.77,-83.071C556.341,-192.196,514.137,-298.728,435.481,-377.346C359.65,-453.14,253.635,-483.399,149.95,-510.684C48.836,-537.292,-56.149,-562.343,-156.543,-533.138C-257.057,-503.898,-330.458,-424.617,-403.542,-349.671C-480.834,-270.409,-578.285,-194.99,-593.257,-85.298C-608.211,24.256,-542.789,127.913,-481.271,219.789C-426.584,301.464,-340.475,348.632,-262.574,408.574C-176.5,474.805,-108.603,590.851,0,590.111" fill="#101217"></path>
        <path d="M1440 1107.187C1542.366 1105.5549999999998 1643.231 1062.8220000000001 1718.6480000000001 993.585 1788.491 929.466 1787.709 822.13 1838.031 741.774 1899.2350000000001 644.042 2058.779 587.512 2044.615 473.07 2030.549 359.41999999999996 1868.215 338.11199999999997 1779.161 266.115 1708.961 209.361 1658.549 132.61900000000003 1576.62 94.71499999999997 1485.46 52.53899999999999 1385.505 19.595000000000027 1286.825 38.335000000000036 1183.785 57.90300000000002 1085.1399999999999 114.33300000000003 1024.122 199.639 965.1120000000001 282.137 974.219 390.603 962.7660000000001 491.384 951.6759999999999 588.978 923.499 688.146 958.165 780.047 993.884 874.739 1071.855 945.711 1155.585 1002.559 1240.887 1060.475 1336.908 1108.83 1440 1107.187" fill="#202631"></path>
    </g>
    <defs>
        <mask id="SvgjsMask1018">
            <rect width="1440" height="560" fill="#ffffff"></rect>
        </mask>
    </defs>
</svg>