<svg xmlns="http://www.w3.org/2000/svg" version="1.1" xmlns:xlink="http://www.w3.org/1999/xlink" xmlns:svgjs="http://svgjs.dev/svgjs" width="1440" height="560" preserveAspectRatio="none" viewBox="0 0 1440 560">
    <g mask="url(&quot;#SvgjsMask1061&quot;)" fill="none">
        <rect width="1440" height="560" x="0" y="0" fill="#101217"></rect>
        <path d="M 0,123 C 96,113.6 288,70 480,76 C 672,82 768,166.4 960,153 C 1152,139.6 1344,37.8 1440,9L1440 560L0 560z" fill="#101217"></path>
        <path d="M 0,213 C 96,239.4 288,335.4 480,345 C 672,354.6 768,269.4 960,261 C 1152,252.6 1344,294.6 1440,303L1440 560L0 560z" fill="#101217"></path>
        <path d="M 0,408 C 96,425.6 288,486.6 480,496 C 672,505.4 768,451.8 960,455 C 1152,458.2 1344,500.6 1440,512L1440 560L0 560z" fill="#920b3a"></path>
    </g>
    <defs>
        <mask id="SvgjsMask1061">
            <rect width="1440" height="560" fill="#fff"></rect>
        </mask>
    </defs>
</svg>