<svg xmlns="http://www.w3.org/2000/svg" version="1.1" xmlns:xlink="http://www.w3.org/1999/xlink" xmlns:svgjs="http://svgjs.dev/svgjs" width="1000" height="560" preserveAspectRatio="none" viewBox="0 0 1000 560">
    <g mask="url(&quot;#SvgjsMask1076&quot;)" fill="none">
        <rect width="1000" height="560" x="0" y="0" fill="rgba(16, 18, 23, 1)"></rect>
        <path d="M899.304,239.347C918.673,239.621,940.408,238.01,950.492,221.471C960.852,204.478,953.859,183.401,943.932,166.151C933.974,148.848,919.267,132.69,899.304,132.52C879.119,132.349,863.163,147.746,853.343,165.382C843.827,182.471,840.236,203.446,850.56,220.06C860.444,235.967,880.578,239.083,899.304,239.347" fill="rgba(146, 11, 58, 1)" class="triangle-float3"></path>
        <path d="M161.969,274.888C179.236,275.238,191.315,259.986,200.023,245.071C208.83,229.987,215.489,212.342,207.581,196.768C199.037,179.942,180.837,169.787,161.969,170.128C143.641,170.46,127.103,181.861,119.131,198.368C112.013,213.106,118.499,229.302,126.494,243.583C134.751,258.332,145.069,274.546,161.969,274.888" fill="rgba(146, 11, 58, 1)" class="triangle-float1"></path>
        <path d="M490.505,522.69C511.863,522.878,530.546,508.306,539.993,489.15C548.48,471.94,543.386,452.196,533.33,435.853C523.839,420.428,508.579,409.875,490.505,408.724C470.032,407.42,447.655,412.154,437.058,429.72C426.202,447.715,432.031,470.071,442.505,488.291C453.02,506.582,469.408,522.504,490.505,522.69" fill="rgba(146, 11, 58, 1)" class="triangle-float2"></path>
    
    </g>
</svg>