<svg xmlns="http://www.w3.org/2000/svg" version="1.1" xmlns:xlink="http://www.w3.org/1999/xlink" xmlns:svgjs="http://svgjs.dev/svgjs" width="1000" height="560" preserveAspectRatio="none" viewBox="0 0 1000 560">
    <g mask="url(&quot;#SvgjsMask1076&quot;)" fill="none">
        <rect width="1000" height="560" x="0" y="0" fill="rgba(16, 18, 23, 1)"></rect>
        <path d="M54.118,103.911C77.017,102.514,97.572,91.897,110.299,72.809C124.83,51.016,136.03,23.326,123.001,0.603C109.931,-22.193,80.359,-26.547,54.118,-25.175C30.591,-23.945,9.615,-12.479,-3.327,7.207C-17.898,29.371,-28.886,57.669,-15.339,80.474C-1.964,102.99,27.978,105.506,54.118,103.911" fill="#17c964" class="triangle-float2"></path>
        <path d="M899.304,239.347C918.673,239.621,940.408,238.01,950.492,221.471C960.852,204.478,953.859,183.401,943.932,166.151C933.974,148.848,919.267,132.69,899.304,132.52C879.119,132.349,863.163,147.746,853.343,165.382C843.827,182.471,840.236,203.446,850.56,220.06C860.444,235.967,880.578,239.083,899.304,239.347" fill="#006fee" class="triangle-float3"></path>
        <path d="M490.505,522.69C511.863,522.878,530.546,508.306,539.993,489.15C548.48,471.94,543.386,452.196,533.33,435.853C523.839,420.428,508.579,409.875,490.505,408.724C470.032,407.42,447.655,412.154,437.058,429.72C426.202,447.715,432.031,470.071,442.505,488.291C453.02,506.582,469.408,522.504,490.505,522.69" fill="rgba(146, 11, 58, 1)" class="triangle-float2"></path>
    
    </g>
</svg>